Patient4_TMGait_0pt8_01_right_10_EMG.mot
version=1
nRows=40
nColumns=33
inDegrees=no
endheader
time	1LAddLong	2LGlutMax	3LGlutMed	4LIliopsoas	5LSemiMemb	6LBicFemLong	7LRecFem	8LVastMed	9LVastLat	10LGasMed	11LTibAnt	12lTibPost	13LPeroneusLong	14LSol	15LExtDigLong	16LFlexDigLong	17RAddLong	18RGlutMax	19RGlutMed	20RIliopsoas	21RSemiMemb	22RBicFemLong	23RRecFem	24RVastMed	25RVastLat	26RGasMed	27RTibAnt	28RTibPost	29RPeroneusLong	30RSol	31RExtDigLong	32RFlexDigLong
12.163	0.003052	-0.093842	-0.010681	0.011444	-0.005035	-0.12131	-0.059357	0.02533	-0.2475	-0.02121	0.065613	0.006714	-0.10086	0.13565	-0.63568	-0.024109	0.004578	-0.00473	0.15106	0.015869	0.077667	-0.004578	-0.004272	-0.083008	-0.003204	-0.001221	0.24963	-0.006104	0.19608	-0.077972	-0.003815	0.013275
12.164	0.010071	-0.090332	-0.043182	0.04303	-0.007629	-0.00412	0.056915	0.022583	-0.23956	-0.002747	-0.31174	0.00824	0.28015	0.13214	-0.32501	-0.011444	0.00946	-0.031586	0.24704	0.007172	0.05188	-0.007477	0.13886	-0.071564	0.010681	-0.003662	0.040894	-0.00473	-0.44754	-0.14297	-0.00412	0.011902
12.165	0.003815	-0.054169	-0.069885	0.011749	-0.005798	-0.043488	0.056458	-0.002136	-0.16525	-0.056305	-0.47836	0.00885	-0.61645	0.36896	-0.083313	-0.002899	-0.00061	-0.017395	0.28763	0.037231	0.038452	-0.013275	0.16098	0.036316	0.009766	-0.010986	0.22995	-0.007477	-0.063019	-0.19775	-0.001678	0.022125
12.166	0.001526	-0.004578	-0.039825	-0.029602	0.011139	-0.11993	0.076447	-0.008545	-0.06485	-0.052643	-0.22293	0.01297	-0.24933	0.29205	-0.15961	-0.005188	-0.005188	0.020447	-0.009308	0.10391	0.019684	0.006561	0.20279	0.12833	0.024109	-0.018768	0.20813	-0.006256	-0.26443	-0.13397	-0.005188	0.010376
12.167	-0.000916	0.023651	-0.000458	0.000305	0.011597	-0.052338	0.1651	-0.017242	-0.10498	-0.074463	-0.005951	0.009918	-0.44296	0.17899	-0.45166	-0.009155	0.011749	0.002747	0.76935	0.085144	-0.007935	-0.032043	0.13763	0.098419	0.031586	-0.016937	-0.019989	-0.008545	-0.34958	-0.098724	0.004883	0.016327
12.168	0.004578	0.056458	-0.072784	0.013428	-0.042877	-0.10132	0.15945	-0.023041	-0.027466	-0.10681	-0.094147	0.010223	0.13687	-0.028687	-0.21469	-0.014954	0.014648	-0.11627	0.25909	-0.002136	0.032806	-0.045776	0.18158	0.009308	0.011749	-0.021667	-0.31052	-0.000305	-0.062714	-0.050201	-0.002747	0.002747
12.169	0.016785	0.079498	-0.17288	0.037079	-0.002289	-0.088196	0.11108	-0.008392	0.002594	-0.072021	-0.096283	0.006714	0.063782	-0.215	0.19516	0.000916	0.026398	-0.054626	-0.32761	-0.12985	0.14923	-0.040436	0.11643	-0.047607	0.000916	-0.019836	-0.2214	-0.011749	0.095673	-0.075684	0.002136	0.000763
12.17	0.015869	0.12009	-0.17334	-0.002594	0.079346	0.041351	0.11932	0.011139	-0.024261	-0.039063	-0.040894	0.012512	-0.22751	-0.67459	0.354	-0.02243	0.030975	0.006866	-0.32074	-0.19867	0.13641	-0.055084	0.1265	-0.04364	-0.006409	-0.020752	-0.17838	-0.007477	-0.18524	-0.005341	-0.003662	0.000458
12.171	0.007782	0.15701	-0.096436	-0.00473	0.046844	0.12116	0.16769	0.024261	-0.07782	-0.019226	-0.050049	0.007477	-0.20676	-0.48569	0.22873	-0.013885	0.030518	0.016022	0.14191	-0.11353	-0.03479	-0.068665	0.094452	-0.047455	0.012665	-0.0177	-0.34561	-0.009155	0.14435	-0.056763	-0.006561	-0.004578
12.172	-0.002289	0.14847	-0.17014	0.004883	0.030212	0.15289	0.18005	-0.003204	-0.052948	0.036621	-0.001068	-0.005188	-0.094452	-0.28519	0.052795	-0.010529	0.000305	0.022736	0.26672	-0.057831	-0.14908	0.054779	0.002594	-0.005188	0.01236	-0.014191	-0.32288	-0.006256	0.005646	-0.054169	-0.005798	0.001068
12.173	-0.00061	0.15015	-0.14557	0.005493	0.012512	0.15137	0.17914	-0.014343	-0.077515	0.067291	-0.003052	0.008087	0.21912	-0.020294	0.10162	0.002747	-0.019684	-0.025635	0.43366	-0.038605	-0.10025	0.16464	0.019226	0.010071	0.030365	0.005951	-0.2478	-0.011444	-0.084076	0.065002	-0.004272	-0.006714
12.174	0.001221	0.159	-0.11261	-0.002289	-0.011749	0.12451	0.17258	-0.007324	-0.045624	-0.032806	0.030518	0.008087	-0.00061	0.15259	0.1889	-0.001221	-0.029907	0.016327	0.42297	0.011139	0.008392	0.13199	0.012512	0.007477	0.033417	0.00061	-0.020142	-0.00473	-0.1033	0.058594	-0.000916	-0.007935
12.175	0.010223	0.13001	-0.055542	-0.033875	0.016785	0.081329	0.23086	-0.007935	-0.023499	-0.10757	-0.043945	0.008392	-0.44235	-0.10513	0.18417	-0.00473	-0.070038	-0.092773	0.35339	0.10086	0.16708	0.103	-0.016327	0.059357	0.076447	-0.005646	0.12695	-0.008698	-0.026855	-0.038757	-0.004578	-0.00473
12.176	0.019684	0.15381	-0.068665	-0.049286	0.030365	0.065155	0.16022	0.000458	-0.055084	0.025482	-0.058136	0.015411	-0.063629	-0.39551	0.21286	0.00061	-0.019684	-0.12131	0.30151	0.075226	0.096893	0.15076	-0.002594	-0.020447	0.029449	-0.013885	0.28473	-0.006866	-0.064697	-0.071259	-0.001678	0.00061
12.177	0.011597	0.16007	-0.081177	-0.032959	-0.009155	0.033112	0.15182	0.002594	-0.041046	0.27771	-0.023041	0.015411	-0.088806	-0.28015	0.21851	-0.010681	0.005341	-0.16403	0.35446	0.065155	-0.015259	0.13153	0.025177	-0.007477	0.01358	-0.015411	0.41672	-0.005646	-0.082855	-0.12985	-0.003967	-0.004883
12.178	0.011292	0.17273	-0.081482	0.011749	-0.020905	0.018005	0.22537	-0.001526	-0.11063	0.097046	0.034943	0.009766	0.39063	-0.26459	0.10941	-0.005798	-0.001831	-0.1001	0.21683	0.14008	-0.063934	0.076752	0.006104	-0.054321	0.017853	-0.01709	0.12955	-0.003357	-0.070801	-0.12253	-0.000763	0.000153
12.179	0.003967	0.20065	-0.066376	0.02243	-0.005035	-0.001068	0.27542	0.009155	-0.16464	-0.05127	0.058441	0.00885	0.54169	-0.16022	0.11551	-0.015106	-0.008545	-0.023804	0.17502	0.063477	-0.11673	0.04715	-0.024872	-0.053253	0.016022	-0.013275	-0.040436	-0.009613	-0.015411	-0.054016	-0.00412	0.016632
12.18	0.006256	0.19165	-0.20599	0.01709	0.041809	-0.027618	0.23636	0.038605	-0.19577	-0.060577	0.042267	0.006409	-0.003204	-0.028992	0.077667	-0.002899	0.005646	-0.019073	0.21088	-0.036621	-0.10559	-0.022583	-0.093079	-0.034485	0.045624	-0.023499	-0.006866	-0.010681	-0.002136	-0.11719	-0.001068	0.006256
12.181	0.00946	0.21469	-0.20294	0.006866	0.043793	-0.021667	0.11169	0.008698	-0.12512	-0.000305	0.03067	0.014191	-0.47806	0.065308	0.0354	0.00061	-0.003052	0.000458	0.050507	-0.054321	-0.15793	-0.12451	-0.055237	0.01236	0.051575	-0.044708	-0.19028	-0.005646	-0.080414	-0.005646	-0.003967	0.005798
12.182	0.013428	0.28625	-0.092926	0.012207	0.028687	-0.023804	0.006714	-0.005951	-0.076752	0.01358	0.007019	0.012512	-0.42038	-0.007324	0.061035	0.007019	0.005646	-0.011597	0.070343	-0.029297	0.30502	-0.2179	-0.056915	0.03418	0.039368	-0.043945	-0.12024	-0.00946	-0.052032	0.000458	-0.001984	0.007172
12.183	0.01297	0.31326	-0.19745	0.007935	0.02533	-0.006256	0.03006	-0.002136	-0.021057	0.010834	-0.010529	0.014954	0.043182	-0.24414	-0.027008	-0.008545	0.021057	0.013275	-0.10574	0.014038	0.35187	-0.27313	-0.036621	-0.02533	0.03891	-0.046234	-0.09491	-0.005646	0.016022	0.028381	-0.000916	0.005035
12.184	0.00946	0.2887	-0.18372	0.019073	0.011292	-0.019073	0.11124	-0.009308	0.079041	-0.018463	-0.013123	0.013885	-0.10254	-0.20142	-0.081787	-0.013123	0.057373	0.05722	-0.12802	0.026398	0.18448	-0.28931	0.022736	-0.05661	0.046692	0.032043	0.050201	-0.005493	0.13473	0.052185	-0.001221	0.018921
12.185	0.00946	0.30945	-0.08255	0.019836	-0.007477	0.001068	0.15732	-0.001984	0.083771	-0.007477	-0.011292	0.006409	0.14221	-0.11063	-0.19455	-0.00946	0.060577	0.046234	-0.11215	0.024719	0.070953	-0.18158	0.041199	-0.037842	0.054932	0.029449	-0.049744	-0.003662	0.14893	0.01236	-0.004578	0.00824
12.186	-0.004272	0.33157	-0.077362	0.012207	-0.000916	0.024261	0.15366	0.004272	0.019836	0.004272	-0.014496	0.014038	-0.1297	0.17883	-0.043793	-0.006409	0.05661	0.000305	-0.17303	0.027008	-0.092773	-0.03952	0.034485	-0.091705	0.048218	0.004425	0.15045	-0.010529	0.042877	0.018921	0.004425	0.013733
12.187	0.002289	0.36758	-0.13641	0.009155	-0.010529	0.017853	0.16983	0.012207	0.006256	0.026398	0.051422	0.003662	-0.070496	0.17059	0.48996	-0.015564	0.033569	0.017853	-0.2301	0.01709	-0.22034	-0.03479	0.044556	-0.13382	0.018158	0.000305	0.04837	-0.007935	0.010223	0.013733	0.000305	0.007324
12.188	0.003204	0.36179	-0.1593	0.016785	0.045166	0.033112	0.24323	0.010529	-0.014496	0.023804	0.085297	0.016632	0.10071	0.31952	0.007172	-0.014496	-0.036316	0.004425	-0.21988	0.029144	-0.16907	-0.063629	0.018463	-0.12878	0.018463	0.007172	0.037384	-0.004272	-0.019073	-0.000916	-0.000458	0.010681
12.189	0.001221	0.36148	-0.11948	0.018463	0.045471	0.032806	0.27405	-0.004272	-0.058899	-0.016479	0.054321	0.021362	-0.046692	0.36148	0.5159	-0.006561	-0.064087	0.010834	-0.16068	0.011444	0.062256	-0.093994	0.012817	-0.049286	0.021973	0.011444	0.000916	-0.00473	-0.36194	-0.028076	-0.001678	0.00885
12.19	0.001831	0.31021	-0.062256	0.002899	0.014648	0.088806	0.26047	0.003815	-0.10452	-0.035095	0.15137	0.015869	0.59509	0.3096	-0.43945	0.004578	-0.12451	-0.018311	-0.19302	0.000458	0.33737	-0.006409	-0.064697	0.057526	0.055389	-0.027466	-0.052338	-0.00061	-0.71121	0.033722	-0.003815	0.010529
12.191	-0.005188	0.29724	-0.009918	0.005188	-0.002289	0.065765	0.24872	0.015411	-0.1004	-0.054932	-0.12009	0.015717	0.92834	0.27405	-0.27512	-0.00061	-0.09552	-0.03479	-0.20004	0.009155	0.046082	0.054626	-0.055695	0.06424	0.038605	-0.028534	0.00351	-0.010376	-0.54321	-0.010834	-0.002747	0.01297
12.192	-0.001068	0.20905	-0.10559	0.014496	-0.031433	0.079041	0.19577	0.018921	-0.08194	-0.068359	-0.16388	0.014496	-0.61356	0.30518	-0.079346	-0.004883	-0.048218	0.026093	-0.21255	0.005341	-0.060577	-0.013885	0.013123	-0.031128	-0.005341	-0.016632	0.05722	-0.010681	0.38147	-0.016479	-0.00061	0.006714
12.193	0.005188	0.10178	-0.11368	0.008087	-0.023346	0.07431	0.1471	0.007935	-0.059509	-0.13397	0.10101	0.013885	-0.35004	0.45288	-0.25604	0.003052	-0.033569	0.041962	-0.22659	0.019531	-0.053406	-0.037994	-0.002594	-0.068207	0.016479	-0.0177	0.20386	0	0.93262	0.014954	0.004578	0.02243
12.194	0.009613	0.039825	-0.112	0.015411	0.021973	0.059052	0.15274	0.010223	-0.098877	-0.11002	0.12985	0.0177	-0.093536	0.14252	-0.32928	-0.002747	-0.023193	0.046539	-0.3508	-0.012512	-0.036011	0.022278	-0.020294	-0.055542	0.045471	-0.012817	0.2359	0.000305	0.68848	0.019226	-0.003052	0.016785
12.195	0.052185	-0.058441	-0.1947	0.030212	0.058746	0.068665	0.094452	0.004578	0.062103	-0.071716	0.050659	0.010223	-0.38025	0.10895	-0.2652	-0.007477	-0.030365	-0.000153	-0.41382	0.019836	-0.007324	0.15625	-0.11337	-0.07019	0.059357	-0.021362	0.050659	-0.010681	0.22461	0.021515	-0.001221	0.009613
12.196	-0.056458	-0.093384	-0.20477	0.025024	0.060883	0.030823	0.1799	0.001526	0.051422	-0.08728	-0.075531	0.015411	0.24094	0.14664	-0.1358	-0.007477	-0.013428	-0.022125	-0.40222	-0.010376	0.00824	0.14603	-0.091858	-0.044861	0.048523	-0.015869	-0.016174	-0.009918	-0.089264	0.10956	-0.002136	0.011902
12.197	0.004883	-0.099945	-0.16907	-0.00824	0.038605	0.03418	0.27054	0.006256	0.005646	-0.03418	0.009308	0.014038	-0.2681	0.11688	-0.06958	-0.005646	0.018158	-0.073395	-0.26947	-0.020447	0.070496	0.22003	-0.090485	-0.034332	0.054932	-0.021362	-0.022888	-0.010376	-0.53574	0.112	-0.00412	0.017242
12.198	-0.023041	-0.12894	-0.13107	-0.00946	0.034943	0.052338	0.26367	0.000305	0.029297	0.036316	0.018005	0.0177	-0.14908	0.015869	-0.028687	0.001373	0.057068	-0.063477	-0.24857	-0.044403	0.14008	0.048828	-0.067444	-0.00946	0.068512	-0.020599	0.032043	-0.002899	-0.85083	0.005341	-0.004272	0.033722
12.199	0.009155	-0.16296	-0.10361	0.00412	0.015564	0.039673	0.27222	-0.003052	0.003662	0.1294	-0.027161	0.025635	-0.1178	0.10223	0.054016	-0.000763	0.11353	-0.090637	-0.25864	-0.026855	0.10635	-0.10788	0.00946	0.02655	0.069885	-0.03418	0.11124	-0.00351	0.11383	-0.035095	0.000305	0.016937
12.2	0.004578	-0.17136	-0.077515	0.031433	-0.032349	0.021667	0.31097	-0.013123	-0.01236	0.20248	-0.023804	0.020447	0.049591	0.075989	0.11551	0.007477	0.12512	-0.07309	-0.30502	-0.069733	-0.017548	-0.084991	-0.032501	0.038605	0.050659	-0.036774	0.073395	-0.012665	0.62988	-0.055847	-0.001526	0.02594
12.201	0.005493	-0.13031	-0.13153	-0.005493	-0.006866	-0.12039	0.34531	-0.01297	-0.014038	0.18799	-0.022736	0.02121	0.22598	0.085602	0.091858	0.033722	0.10315	-0.077057	-0.17685	-0.19531	-0.42847	0.11841	-0.005035	0.029144	0.057526	-0.005341	0.058594	-0.006409	0.42297	-0.12848	-0.001221	0.022278
12.202	0.005188	-0.12589	-0.15198	-0.017242	-0.007935	-0.20294	0.37048	-0.008545	-0.030823	0.12207	-0.00473	0.020752	0.15305	-0.039063	0.10513	0.048676	0.059662	0.000305	-0.1088	-0.17303	-0.44327	0.16159	0.001526	0.056458	0.05188	-0.008698	0.050354	-0.007324	0.58823	-0.084229	-0.00412	0.02655
